<svg aria-hidden="true" style="position:absolute;width:0;height:0;overflow:hidden" xmlns="http://www.w3.org/2000/svg"><defs><symbol id="icon-cup" viewBox="0 0 32 32"><path fill="#008ed6" style="fill:var(--color1, #008ed6)" d="M15.84 19.06c-5.568-.203-10.005-4.766-10.005-10.366 0-.111.002-.221.005-.331v.016-6.38a1 1 0 0 1 1-1h17.986a1 1 0 0 1 1 1v6.38c.003.094.005.205.005.317 0 5.594-4.429 10.153-9.972 10.363l-.019.001zM7.84 3v5.38a8.02 8.02 0 1 0 15.984-.029l.002.03v-5.38H7.84zm7.99 24.96a1 1 0 0 0 .994-1v-8.28a1 1 0 0 0-2 0v8.28a1 1 0 0 0 1 1zm4.084 0H11.83a1 1 0 0 1 0-2h8.084a1 1 0 0 1 .006 2zM22.908 31a1 1 0 0 0-.003-2H8.842a1 1 0 0 0 0 2h14.06zm2.152-19-.023-.001a6.564 6.564 0 0 0 5.421-2.159l-.018.027a7.995 7.995 0 0 0 1.411-4.548c0-.537-.053-1.063-.145-1.519l-.001-.006a1 1 0 0 0-.979-.793h-5.5a1 1 0 0 0 0 2h4.6l-.002-.022a5.389 5.389 0 0 1-.929 3.602l-.001.001A4.718 4.718 0 0 1 25.054 10a1 1 0 0 0 0 2zM6.77 12a1 1 0 0 0 0-2l.019-.002a4.718 4.718 0 0 1-3.861-1.419l.012.018A5.396 5.396 0 0 1 1.998 5h4.6a1 1 0 0 0 0-2h-5.5c-.482 0-.883.34-.98.8l.008-.051A8.056 8.056 0 0 0-.028 5.32c0 1.688.52 3.254 1.391 4.52l.005.006A6.563 6.563 0 0 0 6.763 12z"/></symbol><symbol id="icon-energy" viewBox="0 0 32 32"><path fill="#008ed6" style="fill:var(--color1, #008ed6)" d="M18.12 2zm0 0-2.256 11.86 8.174.02L12.91 29.96l2.258-13.04-8.174-.04L18.12 2zm0-2h-.16a1.85 1.85 0 0 0-.869.344l.005-.004a2.034 2.034 0 0 0-.416.358L16.678.7a1.38 1.38 0 0 1-.106.142l.002-.002-11.2 14.84a1.993 1.993 0 0 0-.162 2.091l-.005-.011a2.062 2.062 0 0 0 1.776 1.1h.002l5.774.04-1.816 10.68a1.987 1.987 0 0 0 1.168 2.195l.013.005a1.835 1.835 0 0 0 2.328-.653l.004-.007 11.222-16.06a2 2 0 0 0-1.612-3.18h-5.784l1.8-9.42a1.82 1.82 0 0 0 .056-.456v-.006a2 2 0 0 0-1.935-1.999h-.075z"/></symbol><symbol id="icon-envelope" viewBox="0 0 32 32"><path fill="#008ed6" style="fill:var(--color1, #008ed6)" d="M29.5 7.01c.55 0 .5-.05.5.5v16c0 .56.05 1.5-.5 1.5h-26a2.067 2.067 0 0 1-1.497-1.486L2 23.51v-16c0-.55.95-.5 1.5-.5H29zm0-2h-26c-1.66 0-3.5.85-3.5 2.5v16a3.927 3.927 0 0 0 3.483 3.499l.017.001h26c1.66 0 2.5-1.84 2.5-3.5v-16a2.218 2.218 0 0 0-2.511-2.499l.012-.001zM16 20.11h-.008a.942.942 0 0 1-.642-.251l.001.001-15-12a1.001 1.001 0 0 1 .584-1.811c.28 0 .534.115.715.301L16 17.79 30.34 6.35c.176-.15.407-.241.659-.241.302 0 .574.131.76.34l.001.001a1.007 1.007 0 0 1-.099 1.409l-.001.001-15.01 12a.944.944 0 0 1-.642.25h-.009z"/></symbol><symbol id="icon-like" viewBox="0 0 32 32"><path fill="#008ed6" style="fill:var(--color1, #008ed6)" d="M19.039 31.984c-9.089 0-9.159-.376-10.285-1.224-.6-.45-1.723-.76-5.838-1.028a1.072 1.072 0 0 1-.772-.364l-.001-.001A14.347 14.347 0 0 1 0 21.442v.017c0-4.732 1.471-6.89 1.534-6.99.18-.284.492-.47.848-.47 3.378 0 8.062-4.313 11.211-11.841C14.137.858 14.25 0 16.25 0a3.88 3.88 0 0 1 3.032 1.842l.01.017c1.291 2.135.636 6.721.029 9.171 2.062-.016 5.8-.045 7.572-.045 2.472 0 4.106 1.474 4.156 3.628a5.87 5.87 0 0 1-.295 2.131l.012-.041A3.696 3.696 0 0 1 32.04 19.1l.002.017a4.284 4.284 0 0 1-1.416 2.986l-.004.003c.21.453.343.982.366 1.539v.008a4.123 4.123 0 0 1-1.981 3.045l-.019.01a5.76 5.76 0 0 1-.032 1.868l.005-.035c-.531 2.46-4.131 3.444-9.923 3.444zM3.447 27.7c3.584.3 5.5.7 6.51 1.459.783.589.662.822 9.082.822 2.568 0 7.59-.107 7.975-1.87l.001-.064c0-.529-.229-1.006-.593-1.335l-.002-.001a1.015 1.015 0 0 1 .513-1.304l.006-.003c.008 0 2-.719 2.05-1.835v-.038c0-.44-.181-.837-.472-1.122a1.018 1.018 0 0 1 .254-1.378l.003-.002a2.599 2.599 0 0 0 1.265-1.842l.002-.015a2.21 2.21 0 0 0-1.164-1.46l-.013-.006a1.009 1.009 0 0 1-.304-1.484l-.002.002c.279-.447.456-.982.49-1.557v-.009c-.037-1.623-1.782-1.674-2.156-1.674-2.522 0-9 .026-9 .026h-.016a.987.987 0 0 1-.821-.44l-.002-.004a1.046 1.046 0 0 1-.089-.951l-.003.007c.977-2.814 1.523-7.228.617-8.735a1.22 1.22 0 0 0-1.335-.889l.006-.001a1.151 1.151 0 0 0-.812.922l-.001.006c-3.343 8-8.334 12.619-12.422 13.037-.647 1.487-1.023 3.219-1.023 5.039 0 .16.003.319.009.477l-.001-.023-.002.207c0 2.202.535 4.279 1.483 6.108l-.035-.074z"/></symbol><symbol id="icon-monitor" viewBox="0 0 32 32"><path fill="#008ed6" style="fill:var(--color1, #008ed6)" d="M30 4.988v17.006H2V4.988h28zm0-2H2a2.006 2.006 0 0 0-2 2v17.006a2.006 2.006 0 0 0 2 2h28a2.006 2.006 0 0 0 2-2V4.988a2.006 2.006 0 0 0-2-2zM17 23v4h5a1 1 0 0 1 0 2H10a1 1 0 0 1 0-2h5v-4h2z"/></symbol><symbol id="icon-mouse" viewBox="0 0 32 32"><path fill="#008ed6" style="fill:var(--color1, #008ed6)" d="M16.07 2a6.96 6.96 0 0 1 6.948 6.96v14.1A6.956 6.956 0 0 1 16.07 30h-.007a7.04 7.04 0 0 1-7.039-6.935V8.96A7.045 7.045 0 0 1 16.067 2h.003zm0-2h-.016a9.03 9.03 0 0 0-9.03 8.956V23.06c0 4.971 4.029 9 9 9s9-4.029 9-9V8.946A8.946 8.946 0 0 0 16.078 0h-.002zm-.038 6a1 1 0 0 1 1 1v5a1 1 0 0 1-2 0V7a1 1 0 0 1 1-1z"/></symbol><symbol id="icon-phone" viewBox="0 0 18 32"><path fill="#008ed6" style="fill:var(--color1, #008ed6)" d="M15 2a1 1 0 0 1 1 1v26a1 1 0 0 1-1 1H2.99a1 1 0 0 1-1-1V3a1 1 0 0 1 1-1H15zm0-2H2.99a3 3 0 0 0-3 3v26a3 3 0 0 0 3 3H15a3 3 0 0 0 3-3V3a3 3 0 0 0-3-3zM7 27v.006a2 2 0 1 0 2-2A2 2 0 0 0 7 27zM7 3h4a1 1 0 0 1 0 2H7a1 1 0 0 1 0-2z"/></symbol><symbol id="icon-pointer" viewBox="0 0 24 32"><path fill="#008ed6" style="fill:var(--color1, #008ed6)" d="M12.125 1.99c6.829 0 9.885 5.12 9.885 10.2 0 4.48-3.19 10.42-9.483 17.66-.036.03-.086.07-.131.11-.046-.04-.1-.08-.133-.11l-.524-.6C7.633 24.54 2.01 18.09 2.01 12.19c.051-5.583 4.539-10.101 10.106-10.2h.009zm0-2C5.453.109.081 5.51.01 12.183v.007c0 6.93 6.439 14.02 10.77 19 .396.442.948.737 1.569.799l.01.001h.076a2.428 2.428 0 0 0 1.573-.798l.002-.002c4.065-4.67 10-12.38 10-19S19.677-.01 12.125-.01zM12 8h.023a4.02 4.02 0 0 1 .024 8.04h-.001A4.076 4.076 0 0 1 8 12.002V12a4 4 0 0 1 4-4zm.046-1.96a6 6 0 1 0 6 6 6 6 0 0 0-6-6z"/></symbol><symbol id="icon-settings" viewBox="0 0 32 32"><path fill="#008ed6" style="fill:var(--color1, #008ed6)" d="m30.016 12.971-2.567-.57a11.602 11.602 0 0 0-.794-1.905l.031.064 1.389-2.314c.303-.386.486-.879.486-1.414s-.183-1.028-.49-1.419l.004.005L26.66 4a2.335 2.335 0 0 0-1.504-.545c-.523 0-1.006.171-1.397.461l.006-.004-2.251 1.434a11.37 11.37 0 0 0-1.746-.743l-.084-.024-.576-2.6a2.35 2.35 0 0 0-2.1-1.977l-.009-.001h-2A2.297 2.297 0 0 0 13 1.99l-.001.011-.642 2.566c-.755.244-1.399.521-2.011.85l.064-.031-2.308-1.47a2.33 2.33 0 0 0-1.391-.456c-.574 0-1.1.206-1.508.548l.004-.003-1.414 1.414a2.29 2.29 0 0 0 .003 2.833l-.004-.005 1.461 2.435a11.225 11.225 0 0 0-.681 1.636l-.024.084-2.566.57a2.349 2.349 0 0 0-1.983 2.1l-.001.009v2a2.303 2.303 0 0 0 1.989 1.999l.011.001 2.6.649c.208.627.43 1.154.689 1.659l-.031-.066-1.463 2.437c-.303.386-.486.879-.486 1.415s.183 1.029.49 1.419l-.004-.005 1.414 1.412c.404.339.929.545 1.503.545.523 0 1.007-.171 1.397-.461l-.006.004 2.313-1.473c.552.3 1.2.579 1.875.799l.084.024.641 2.56a2.297 2.297 0 0 0 1.989 1.999l.011.001h2a2.35 2.35 0 0 0 2.107-1.972l.002-.013.577-2.6a11.718 11.718 0 0 0 1.872-.789l-.064.031 2.256 1.437a2.33 2.33 0 0 0 1.388.455c.575 0 1.101-.207 1.509-.55l-.004.003 1.415-1.414c.303-.386.486-.879.486-1.415s-.183-1.029-.49-1.419l.004.005-1.39-2.316c.251-.476.494-1.043.691-1.63l.025-.084 2.6-.649a2.303 2.303 0 0 0 1.999-1.989l.001-.011v-2a2.348 2.348 0 0 0-1.972-2.105l-.013-.002zM30 16.939a1.284 1.284 0 0 1-.439.19l-.009.002-3.708.925-.344 1.051a10.001 10.001 0 0 1-.627 1.485l.027-.056-.5.986 1.959 3.267c.092.138.161.301.198.475l.002.009-1.315 1.314a1.615 1.615 0 0 1-.349-.144l.008.004-3.292-2.1-1.023.53c-.42.225-.916.438-1.43.61l-.07.02-1.09.353-.824 3.723a.769.769 0 0 1-.217.417h-1.8a1.282 1.282 0 0 1-.189-.439l-.002-.009-.921-3.681-1.065-.338a9.642 9.642 0 0 1-1.682-.711l.052.026-1.028-.543-3.292 2.1a.75.75 0 0 1-.407.142h-.002l-1.312-1.276c.035-.17.098-.32.184-.454l2.043-3.403-.487-.98a9.253 9.253 0 0 1-.528-1.255l-.02-.069-.343-1.052-3.672-.918a1.392 1.392 0 0 1-.49-.203l.005.003v-1.86a2.14 2.14 0 0 1 .319-.137l.016-.005 3.773-.836.346-1.1c.183-.561.382-1.034.614-1.488l-.026.057.487-.98-2.024-3.373a1.378 1.378 0 0 1-.198-.475l-.002-.009L6.62 5.419c.13.037.243.085.348.144l-.008-.004 3.354 2.138 1.027-.542a9.544 9.544 0 0 1 1.551-.662l.071-.02 1.063-.339.912-3.648a1.41 1.41 0 0 1 .203-.49l-.003.005H17c-.014.02.115.2.142.339l.839 3.794 1.089.352a9.85 9.85 0 0 1 1.577.665l-.054-.026 1.023.532 3.224-2.054a.751.751 0 0 1 .407-.143h.002l1.312 1.276c-.035.17-.097.321-.184.455l.003-.005-1.98 3.3.5.987c.231.429.448.934.621 1.459l.019.068.346 1.1 3.7.821a.703.703 0 0 1 .434.24l.001.001zm-13.988 5.07a6.01 6.01 0 1 1 6.024-6.01 6.024 6.024 0 0 1-6.023 6.01zM16 12a4 4 0 1 0 4 4 4 4 0 0 0-4-4z"/></symbol><symbol id="icon-speedometer" viewBox="0 0 32 32"><path fill="#008ed6" style="fill:var(--color1, #008ed6)" d="M23.848 30.74h-.001.014a.986.986 0 0 0 .51-.14l.068-.039c4.527-2.823 7.54-7.847 7.54-13.575C31.979 8.157 24.822 1 15.993 1S.007 8.157.007 16.986c0 5.688 2.971 10.682 7.511 13.554l-.005-.003a1.016 1.016 0 0 0 1.382-.317l-.002.004a1.003 1.003 0 0 0-.313-1.384l-.057-.034C4.615 26.327 2.02 21.962 2.02 16.992c0-7.721 6.259-13.98 13.98-13.98s13.98 6.259 13.98 13.98c0 5.011-2.636 9.406-6.656 11.908l-.004.002a1 1 0 0 0 .528 1.838zM30.672 18h-1.828a1 1 0 0 1 0-2h1.828a1 1 0 0 1 0 2zM3.17 17.98H1.338a1 1 0 0 1 0-2h1.828a1 1 0 0 1 .004 2zM15.97 5.3a1 1 0 0 1-1-1V2.46a1 1 0 0 1 2 0V4.3a1 1 0 0 1-.992 1zM9.636 6.86h-.002a.999.999 0 0 1-.863-.495l-.003-.005-.914-1.58a1 1 0 1 1 1.73-1.005l.003.005.914 1.58a1 1 0 0 1-.362 1.357l-.005.003a.898.898 0 0 1-.485.14h-.005zm19.062 18.4a1.13 1.13 0 0 1-.506-.143l.006.003-1.584-.92a1.001 1.001 0 1 1 1.003-1.718l-.003-.002 1.584.9a1.019 1.019 0 0 1 .366 1.385l.003-.005a1.001 1.001 0 0 1-.86.5zM4.95 11.54h-.011a.916.916 0 0 1-.492-.142l.004.002-1.584-.9a1.02 1.02 0 0 1-.363-1.385l-.003.005a1.002 1.002 0 0 1 1.37-.357l-.005-.003 1.584.92a1.002 1.002 0 0 1 .366 1.364l.003-.005a1.001 1.001 0 0 1-.86.5zM3.368 25.26a.999.999 0 0 1-.863-.495l-.003-.005a1.014 1.014 0 0 1 .361-1.377l.005-.003 1.582-.9a1 1 0 1 1 1.006 1.718l-.006.003-1.582.92c-.142.08-.31.131-.489.14h-.003zm23.748-13.72a1 1 0 0 1-.505-1.858l.005-.003 1.582-.92a.997.997 0 0 1 1.365.356l.003.005a1.016 1.016 0 0 1-.363 1.378l-.005.003-1.582.9a.91.91 0 0 1-.488.14h-.004zM22.43 6.86h-.013a.906.906 0 0 1-.489-.142l.004.002a.999.999 0 0 1-.363-1.365l-.003.005.914-1.58a1 1 0 1 1 1.729 1.004l.003-.005-.914 1.58a1.001 1.001 0 0 1-.86.5zM13.966 17a2 2 0 1 0 2-2 2 2 0 0 0-1.992 2zm9.77-4.5a.985.985 0 0 1-.361 1.358l-.005.003-6.928 4a1 1 0 1 1-1.006-1.718l.006-.003 6.928-4a.997.997 0 0 1 1.365.356l.003.005z"/></symbol><symbol id="icon-dribbble" viewBox="0 0 32 32"><path d="M16 32C7.175 32 0 24.825 0 16S7.175 0 16 0s16 7.175 16 16-7.175 16-16 16zm13.494-13.812c-.469-.15-4.231-1.269-8.512-.581 1.788 4.912 2.512 8.912 2.656 9.744 3.063-2.075 5.25-5.356 5.856-9.163zM21.337 28.6c-.206-1.2-.994-5.375-2.913-10.363-.031.012-.063.019-.087.031-7.713 2.688-10.481 8.031-10.725 8.531a13.612 13.612 0 0 0 8.387 2.887c1.894 0 3.7-.387 5.338-1.087zM5.844 25.156c.313-.531 4.063-6.738 11.106-9.019.175-.056.356-.113.538-.162a50.041 50.041 0 0 0-1.106-2.319C9.563 15.7 2.938 15.612 2.338 15.606c-.006.137-.006.275-.006.419 0 3.506 1.331 6.712 3.512 9.131zM2.625 13.219c.612.006 6.244.031 12.637-1.662a86.017 86.017 0 0 0-5.069-7.906C6.368 5.457 3.505 8.982 2.624 13.22zM12.8 2.731a73.225 73.225 0 0 1 5.1 8c4.863-1.819 6.919-4.588 7.163-4.938A13.598 13.598 0 0 0 16 2.349a14.22 14.22 0 0 0-3.2.381zm13.781 4.65c-.288.388-2.581 3.325-7.631 5.388.319.65.625 1.313.906 1.981.1.238.2.469.294.706 4.55-.569 9.069.344 9.519.438a13.628 13.628 0 0 0-3.087-8.512z"/></symbol><symbol id="icon-behance" viewBox="0 0 32 32"><path d="M9.281 6.412c.944 0 1.794.081 2.569.25.775.162 1.431.438 1.988.813.55.375.975.875 1.287 1.5.3.619.45 1.394.45 2.313 0 .994-.225 1.819-.675 2.481-.456.662-1.119 1.2-2.006 1.625 1.213.35 2.106.962 2.706 1.831.6.875.887 1.925.887 3.163 0 1-.194 1.856-.575 2.581a5.048 5.048 0 0 1-1.556 1.781c-.65.462-1.4.8-2.237 1.019-.831.219-1.688.331-2.575.331H0V6.412h9.281zm-.562 7.951c.769 0 1.406-.181 1.906-.55.5-.363.738-.963.738-1.787 0-.456-.081-.838-.244-1.131a1.813 1.813 0 0 0-.669-.688 2.643 2.643 0 0 0-.956-.344 5.871 5.871 0 0 0-1.113-.1h-4.05v4.6h4.388zm.237 8.381c.425 0 .831-.038 1.213-.125.387-.087.731-.219 1.019-.419.287-.194.531-.45.706-.788.175-.331.256-.756.256-1.275 0-1.012-.287-1.738-.856-2.175-.569-.431-1.325-.644-2.262-.644h-4.7v5.419h4.625zM22.663 22.675c.587.575 1.431.863 2.531.863.788 0 1.475-.2 2.044-.6s.913-.825 1.044-1.262h3.45c-.556 1.719-1.394 2.938-2.544 3.675-1.131.738-2.519 1.113-4.125 1.113-1.125 0-2.131-.181-3.038-.538a6.467 6.467 0 0 1-2.3-1.531 7.019 7.019 0 0 1-1.45-2.375c-.337-.919-.512-1.938-.512-3.038a8.3 8.3 0 0 1 .525-2.981c.356-.925.844-1.719 1.494-2.387s1.413-1.2 2.313-1.588c.894-.387 1.881-.581 2.975-.581 1.206 0 2.262.231 3.169.706.9.469 1.644 1.1 2.225 1.887s.994 1.694 1.25 2.706a10.26 10.26 0 0 1 .275 3.175H21.695c0 1.119.375 2.188.969 2.756zm4.493-7.487c-.462-.512-1.256-.794-2.212-.794-.625 0-1.144.106-1.556.319a3.167 3.167 0 0 0-.994.787c-.25.313-.425.65-.525 1.006-.1.344-.163.663-.181.938h6.375c-.094-1-.438-1.738-.906-2.256zM20.887 8h7.981v1.944h-7.981V8z"/></symbol></defs></svg>